<?xml version="1.0" standalone="no"?>
<!DOCTYPE svg PUBLIC "-//W3C//DTD SVG 20010904//EN"
 "http://www.w3.org/TR/2001/REC-SVG-20010904/DTD/svg10.dtd">
<svg version="1.0" xmlns="http://www.w3.org/2000/svg"
 width="512.000000pt" height="512.000000pt" viewBox="0 0 512.000000 512.000000"
 preserveAspectRatio="xMidYMid meet">

<g transform="translate(0.000000,512.000000) scale(0.100000,-0.100000)"
fill="#000000" stroke="none">
<path d="M3234 4026 c-36 -44 -68 -124 -99 -240 -45 -175 -49 -263 -19 -423 6
-29 3 -33 -36 -53 -32 -16 -39 -24 -31 -34 9 -10 0 -17 -40 -29 -28 -10 -58
-17 -65 -17 -16 0 -19 -46 -4 -55 6 -3 10 -17 10 -30 0 -16 -7 -25 -25 -29
-35 -9 -33 -46 5 -89 21 -24 26 -37 18 -45 -17 -17 -3 -39 46 -74 33 -23 43
-35 35 -44 -7 -9 9 -24 63 -58 40 -25 65 -46 56 -46 -10 0 -18 -4 -18 -10 0
-5 -9 -10 -20 -10 -12 0 -20 -7 -20 -16 0 -11 -5 -14 -17 -9 -10 3 -31 9 -46
12 -15 3 -56 20 -90 37 -55 28 -65 38 -94 93 -18 35 -34 86 -39 119 -6 49 -3
65 16 104 12 25 27 56 34 70 6 14 27 46 47 72 60 77 92 168 97 278 4 86 2 101
-22 154 -39 89 -44 92 -78 59 -16 -15 -34 -28 -41 -28 -7 -1 -28 -9 -48 -18
-34 -15 -98 -32 -214 -55 -74 -16 -153 -54 -228 -111 -36 -28 -72 -51 -80 -51
-13 0 -55 -48 -89 -101 -22 -35 -58 -154 -58 -194 0 -18 -7 -38 -15 -45 -10
-8 -12 -17 -6 -28 6 -10 4 -21 -6 -30 -11 -12 -13 -28 -8 -70 11 -87 31 -143
85 -232 27 -46 50 -84 50 -84 0 -1 -29 -1 -64 -1 -51 0 -71 -5 -94 -22 l-30
-22 -38 20 c-32 17 -53 20 -116 16 l-77 -4 20 25 c10 14 19 31 19 39 0 8 11
29 25 45 20 23 24 38 20 58 -5 22 -2 30 13 34 22 7 48 59 37 75 -3 6 1 14 10
17 20 8 45 56 45 87 0 13 -6 31 -13 42 -12 15 -12 23 1 47 20 41 9 97 -23 126
-33 28 -85 29 -144 2 -24 -11 -45 -19 -46 -18 -1 2 -19 29 -39 61 -44 71 -106
134 -178 181 -55 37 -152 76 -188 76 -13 0 -20 7 -20 19 0 23 -28 54 -40 46
-5 -3 -14 12 -20 33 -19 74 -76 122 -143 122 -37 0 -82 -29 -91 -58 -5 -14
-17 -18 -67 -17 -55 0 -63 -3 -86 -29 -20 -23 -24 -37 -20 -63 3 -18 2 -33 -3
-33 -35 0 -52 -70 -25 -100 14 -16 10 -23 -53 -86 -101 -102 -157 -219 -171
-359 l-6 -59 -51 3 c-104 5 -174 -35 -174 -101 0 -36 23 -82 52 -102 18 -13
22 -24 19 -54 -2 -33 2 -43 29 -66 17 -14 42 -26 55 -26 39 0 41 -33 5 -85
-33 -49 -65 -72 -75 -55 -9 15 -25 12 -19 -4 3 -8 -3 -19 -15 -26 -16 -8 -21
-8 -21 3 0 7 6 19 13 27 10 12 9 12 -5 1 -16 -12 -18 -11 -18 10 0 13 -5 31
-10 39 -8 11 -9 8 -4 -13 8 -34 -1 -71 -22 -91 -19 -20 -29 -20 -48 0 -19 19
-20 50 -3 84 7 14 14 50 14 80 l1 55 -7 -49 c-9 -58 -25 -72 -89 -75 -58 -2
-86 22 -101 84 -5 25 -9 31 -10 17 -2 -55 67 -142 114 -142 19 0 75 -52 75
-69 0 -7 -12 -16 -27 -22 -39 -15 -104 17 -126 63 -9 18 -17 27 -17 20 -1 -56
83 -122 154 -122 52 0 60 -8 43 -44 -11 -24 -16 -26 -52 -20 -22 3 -50 15 -62
27 -13 11 -23 16 -23 11 0 -11 40 -51 80 -79 l25 -17 -31 5 -31 6 26 -28 c14
-16 29 -24 32 -19 6 10 1 -87 -6 -109 -6 -19 -40 -15 -60 6 -12 15 -16 32 -13
65 2 26 0 46 -4 46 -5 0 -8 9 -8 19 0 11 -4 22 -9 25 -4 3 -6 -6 -3 -19 7 -40
-6 -75 -29 -75 -11 0 -17 -4 -14 -10 3 -5 -11 -16 -31 -25 -33 -13 -39 -13
-70 1 -19 9 -41 28 -49 43 -9 16 -14 20 -15 10 0 -20 47 -64 85 -80 17 -7 56
-11 87 -10 47 2 61 -2 79 -20 l22 -22 -28 -14 c-38 -20 -112 -19 -136 3 -10 9
-16 21 -13 25 3 5 0 9 -5 9 -33 0 3 -48 65 -87 18 -11 18 -12 -4 -12 -22 -1
-22 -2 -7 -31 8 -16 31 -42 50 -57 l34 -27 -20 -32 c-48 -79 -62 -142 -64
-286 -1 -133 -2 -138 -26 -165 -34 -37 -59 -75 -59 -89 0 -7 27 -15 66 -19 78
-8 84 -18 60 -86 -24 -65 -18 -79 31 -72 37 5 41 3 80 -48 l41 -53 -19 -38
-20 -39 -30 31 c-37 36 -49 37 -78 7 -19 -21 -21 -31 -15 -80 4 -32 11 -57 17
-57 6 0 24 10 41 23 49 37 55 39 49 18 -3 -14 8 -27 42 -50 25 -17 50 -31 56
-31 5 0 9 38 9 85 l0 84 36 -24 c19 -13 66 -37 105 -52 45 -19 67 -32 64 -41
-4 -10 1 -11 18 -6 12 4 74 8 137 8 137 2 220 21 339 78 90 43 150 56 385 82
201 23 357 36 646 51 721 39 1542 -15 2149 -141 188 -39 201 -40 269 -18 108
35 162 116 186 280 8 53 17 98 20 101 2 2 14 -1 26 -7 44 -23 53 -7 48 83 -3
45 -9 90 -13 99 -6 15 -2 16 27 12 18 -3 65 3 103 13 55 14 71 22 73 38 3 26
-64 113 -110 144 l-37 24 38 31 c44 35 84 94 105 153 20 57 11 66 -52 52 -70
-14 -86 -7 -37 18 22 12 51 33 65 48 21 22 22 28 10 35 -8 5 -19 9 -25 9 -5 0
-4 -3 3 -6 39 -16 -27 -53 -95 -53 -39 0 -51 4 -62 22 -12 19 -11 23 5 35 10
7 41 13 68 13 28 0 69 9 91 19 54 24 119 101 86 101 -5 0 -11 -9 -14 -19 -9
-35 -66 -63 -120 -58 -26 2 -50 7 -54 10 -3 4 3 19 13 34 10 15 18 30 17 33
-1 3 19 6 44 8 25 2 57 10 72 19 39 25 81 65 81 79 0 7 -15 -3 -34 -22 -26
-26 -42 -34 -70 -34 -24 0 -36 5 -36 14 0 9 -7 12 -19 9 -24 -6 -51 31 -52 72
l-1 30 -7 -30 c-3 -16 -2 -50 3 -76 11 -55 2 -96 -23 -104 -37 -11 -60 13 -74
80 -4 17 -5 16 -6 -4 l-1 -24 -21 27 c-11 14 -28 26 -37 26 -13 0 -14 -2 -4
-9 25 -15 -39 -30 -146 -33 -56 -2 -102 0 -102 4 0 11 51 48 66 48 8 0 14 6
14 14 0 8 7 17 16 20 11 4 15 2 11 -8 -8 -20 54 -28 115 -15 37 8 62 22 95 54
44 43 51 65 22 73 -11 3 -11 2 -1 -6 16 -11 -43 -59 -96 -77 -44 -16 -115 0
-110 23 6 29 67 62 115 62 88 0 222 129 153 147 -13 4 -13 3 -1 -5 35 -25 -65
-102 -131 -102 -38 0 -44 20 -19 66 12 21 21 33 21 27 0 -7 7 -10 16 -6 13 5
13 7 2 15 -8 5 -3 6 14 2 49 -11 127 53 143 118 4 15 2 29 -4 32 -7 4 -8 1 -5
-9 13 -34 -54 -97 -108 -101 -26 -2 -28 0 -26 30 1 17 -2 37 -6 44 -8 13 -7
14 42 18 19 1 43 11 54 21 25 22 50 71 46 85 -2 6 -10 -2 -17 -19 -13 -33 -79
-63 -92 -42 -4 7 -9 5 -12 -5 -9 -23 -24 -20 -53 9 -25 25 -25 25 -19 4 4 -13
16 -36 26 -53 38 -62 17 -106 -39 -79 -24 12 -33 24 -38 52 -9 56 -12 60 -13
14 -1 -29 7 -53 24 -79 29 -42 32 -85 9 -108 -14 -15 -18 -14 -45 5 -40 28
-52 55 -45 98 4 25 2 31 -4 21 -13 -20 -13 -127 0 -135 15 -10 12 -89 -5 -111
-15 -19 -15 -19 -33 2 -9 11 -22 19 -27 17 -15 -5 -45 50 -45 81 0 41 31 98
51 93 12 -3 16 0 12 9 -3 8 -9 14 -13 14 -16 0 -48 -50 -61 -95 -7 -25 -16
-45 -19 -45 -3 0 -13 12 -22 28 -9 15 -25 36 -36 45 -19 18 -21 17 -42 -5 -12
-13 -31 -39 -42 -58 -12 -19 -23 -37 -24 -39 -2 -2 -19 4 -38 13 -19 9 -56 19
-83 23 -39 5 -56 14 -88 47 -22 23 -49 46 -60 53 -18 11 -16 12 20 12 22 1 56
-4 75 -9 23 -7 36 -7 38 0 2 5 23 10 47 10 64 0 145 19 145 35 0 7 23 17 58
24 73 14 90 25 74 43 -9 12 -2 18 43 32 63 19 81 51 50 86 -16 17 -16 20 0 44
15 23 15 26 2 26 -9 0 -19 -5 -22 -11 -4 -5 -18 -15 -32 -20 l-25 -9 24 -21
c20 -18 21 -20 3 -15 -16 5 -15 2 7 -18 l27 -24 -40 -16 c-22 -9 -50 -16 -63
-16 -31 0 -39 -11 -18 -26 24 -18 10 -26 -50 -31 -29 -2 -64 -6 -77 -9 -22 -5
-23 -6 -5 -19 17 -13 10 -15 -61 -16 -99 -3 -97 -3 -143 6 -32 6 -35 5 -19 -7
15 -11 5 -13 -69 -10 -59 3 -84 0 -80 -7 4 -6 1 -9 -6 -6 -7 2 -49 9 -93 14
-44 5 -89 13 -100 17 -12 4 -4 -7 18 -25 20 -18 37 -36 37 -41 0 -4 -21 -11
-47 -14 -40 -5 -57 -2 -97 19 -37 19 -65 25 -110 25 -34 0 -81 6 -106 14 -42
12 -45 16 -45 47 0 30 4 35 30 40 29 5 28 6 -35 37 -36 17 -58 32 -50 32 8 1
-6 9 -32 19 -26 10 -54 26 -63 35 -9 9 -26 16 -38 17 -21 0 -21 1 -2 9 19 7
18 9 -8 19 -16 6 -34 11 -40 11 -7 1 -32 12 -57 25 l-45 24 35 1 35 0 -50 30
c-27 16 -63 41 -80 54 l-30 25 30 1 30 0 -38 31 c-21 17 -44 44 -52 60 -15 28
-15 29 12 35 67 15 65 11 38 54 -14 22 -25 42 -25 45 0 7 68 -30 100 -54 29
-23 106 -41 79 -19 -8 7 -18 20 -21 29 -5 14 2 18 38 24 45 6 69 0 59 -15 -5
-8 22 -55 58 -102 7 -9 33 -33 58 -52 41 -31 50 -34 83 -26 21 5 48 17 59 28
22 20 60 42 72 42 4 0 4 -13 0 -28 -5 -23 1 -36 35 -74 37 -43 42 -45 75 -38
51 11 100 43 103 67 3 19 7 20 30 12 15 -5 36 -22 47 -37 47 -65 154 -139 163
-113 2 6 20 11 40 11 20 0 55 5 77 12 22 6 44 11 49 9 5 -1 23 1 39 5 l31 6
-25 13 -24 13 29 8 c27 6 28 9 22 50 -5 39 -3 46 20 60 28 19 49 52 39 62 -4
4 -11 -1 -16 -11 -21 -36 -62 -7 -51 37 3 12 1 18 -3 14 -4 -4 -27 10 -51 31
-50 47 -107 67 -160 56 -45 -8 -134 -90 -134 -122 0 -12 -11 -28 -25 -37 -14
-9 -25 -23 -25 -31 0 -26 -28 -16 -41 14 -8 18 -23 31 -39 35 -57 12 -146 34
-167 41 -26 8 -31 35 -7 35 9 0 14 6 11 13 -2 6 -9 11 -15 10 -5 -1 -12 16
-16 38 -10 62 -32 97 -78 120 -36 18 -51 20 -119 14 -59 -5 -79 -11 -79 -22 0
-8 -5 -11 -12 -7 -7 4 -29 7 -50 7 -21 0 -35 3 -32 8 3 5 12 9 20 9 9 0 14 5
12 12 -3 7 6 24 19 38 93 101 126 132 164 153 70 39 225 96 282 103 28 4 63
11 76 16 16 6 27 5 31 -2 4 -7 19 -2 42 14 l35 24 -11 -29 c-5 -16 -18 -29
-26 -29 -20 0 -70 -23 -70 -32 0 -9 63 -2 118 14 37 11 50 10 92 -5 l49 -18
59 41 c116 79 340 163 462 174 l65 6 -80 -18 c-144 -33 -315 -101 -345 -137
-14 -16 -13 -17 5 -12 67 20 77 20 73 1 -5 -27 -96 -86 -127 -82 -19 2 -26 9
-25 24 0 19 -3 19 -37 10 l-38 -10 67 -60 c168 -150 236 -235 232 -289 -3 -37
0 -47 14 -47 14 0 26 -21 26 -47 0 -10 -6 -13 -16 -9 -13 5 -15 -1 -11 -37 10
-89 19 -116 39 -123 18 -5 18 -7 4 -23 -20 -22 -20 -31 2 -47 15 -12 13 -13
-18 -14 -28 -1 -31 -3 -15 -9 19 -8 19 -8 -3 -15 l-23 -8 25 -19 c29 -23 59
-24 80 -4 13 13 20 13 63 -7 75 -33 159 -17 103 20 -14 10 -37 30 -53 47 -25
28 -26 31 -10 42 15 12 15 15 -9 40 -49 53 -51 67 -17 104 142 152 234 634
138 730 -25 25 -119 25 -214 0 -144 -38 -338 -124 -393 -174 -21 -20 -24 -20
-57 -4 -24 11 -33 21 -29 32 5 12 -2 15 -30 15 -28 0 -36 4 -36 18 0 31 -12
33 -40 7 -24 -23 -28 -24 -34 -10 -5 15 -9 14 -32 -4 -45 -36 -74 -28 -114 32
-52 77 -216 244 -284 289 -77 50 -115 51 -152 4z m127 -14 c63 -41 163 -136
229 -218 49 -62 56 -75 52 -107 -5 -40 -27 -55 -51 -33 -9 7 -26 17 -39 21
-27 8 -47 45 -57 105 l-7 45 37 -35 c21 -19 35 -27 32 -18 -3 9 -2 18 4 20 12
4 -84 114 -141 161 -25 21 -62 45 -82 54 -21 9 -38 20 -38 25 0 14 15 9 61
-20z m29 -213 c29 -69 48 -178 31 -188 -6 -4 -9 -14 -6 -22 3 -9 -9 -21 -37
-34 -23 -11 -60 -37 -82 -57 -23 -21 -44 -38 -47 -38 -10 0 -37 45 -45 75 -5
22 -4 26 6 20 10 -6 11 -4 5 11 -9 22 -18 86 -9 67 8 -18 25 -16 18 2 -3 8 -1
46 6 84 12 75 30 93 60 66 17 -15 17 -13 13 29 -3 25 -3 52 1 61 10 28 60 -17
86 -76z m-2166 -80 c37 -29 56 -70 56 -121 1 -38 2 -41 14 -25 21 27 39 21 33
-11 -6 -28 -5 -29 56 -40 34 -7 91 -26 127 -44 84 -41 194 -151 234 -233 16
-33 31 -62 33 -64 2 -3 13 5 26 17 45 42 131 56 161 26 9 -9 16 -32 16 -56 0
-32 -6 -46 -31 -69 l-31 -29 26 0 c23 0 46 -24 46 -48 0 -17 -53 -62 -73 -62
-19 0 -20 -1 -2 -20 15 -17 16 -24 7 -45 -10 -21 -18 -25 -57 -25 -25 0 -45
-4 -45 -10 0 -5 6 -10 13 -10 7 0 21 -6 32 -13 23 -18 14 -63 -15 -72 -14 -4
-19 -12 -16 -23 3 -9 2 -22 -2 -28 -10 -17 -102 -64 -123 -64 -14 0 -19 -7
-19 -29 0 -34 -21 -58 -58 -68 -15 -3 -48 -17 -74 -30 l-46 -23 -48 25 c-58
31 -80 31 -152 1 -31 -13 -75 -27 -96 -31 -22 -3 -62 -18 -88 -31 -57 -29 -85
-25 -113 19 -18 27 -58 56 -41 29 9 -15 -26 -32 -68 -32 -25 0 -45 9 -71 31
-38 34 -44 62 -19 90 14 16 13 17 -17 16 -27 -2 -34 2 -40 23 l-7 25 -11 -32
c-13 -33 -55 -58 -88 -51 -22 4 -29 43 -12 64 10 13 7 14 -29 8 -23 -3 -52 -4
-66 0 -49 12 -59 77 -14 92 18 5 15 8 -19 24 -49 22 -73 54 -73 96 0 54 28 69
131 69 l89 0 0 41 c0 61 35 188 72 256 42 79 109 152 182 200 l59 38 -35 0
c-45 0 -72 20 -64 47 7 21 45 43 74 43 13 0 12 3 -6 16 -12 8 -22 26 -22 39 0
49 82 72 144 40 15 -8 29 -15 30 -15 1 0 0 17 -2 37 -3 27 0 40 14 50 27 20
87 16 118 -8z m1712 -123 c-5 -44 -4 -47 9 -30 8 10 15 26 16 34 0 8 5 2 10
-15 5 -19 5 -51 -2 -85 -5 -30 -11 -71 -13 -90 -2 -20 -10 -47 -19 -61 -10
-14 -14 -28 -11 -32 14 -14 -91 -138 -138 -163 -32 -17 -34 -13 -12 21 9 14
12 25 7 25 -11 0 -86 -50 -95 -64 -4 -6 -9 -8 -12 -5 -3 3 11 25 31 48 l36 43
-40 -20 c-22 -12 -40 -27 -40 -35 0 -7 -9 -34 -20 -58 -11 -24 -23 -52 -26
-61 -9 -25 -23 -22 -33 5 -6 18 -8 14 -11 -23 -6 -62 -18 -70 -39 -27 -21 44
-31 40 -40 -18 -6 -43 -8 -45 -39 -45 -25 0 -35 5 -40 20 -7 21 -25 28 -25 10
0 -7 -6 -7 -19 0 -34 18 -54 102 -47 194 11 125 14 139 36 191 11 26 19 50 16
52 -2 2 -20 -12 -40 -32 -47 -46 -49 -20 -5 45 39 57 126 123 198 150 60 23
78 20 34 -5 -15 -9 -19 -13 -8 -9 11 4 72 22 135 41 63 19 122 37 130 41 8 3
20 4 27 3 7 -1 27 14 45 33 l33 35 9 -32 c4 -18 5 -54 2 -81z m1542 53 c28 15
62 14 62 -2 0 -7 -12 -29 -26 -50 l-25 -38 27 7 c26 7 26 6 19 -35 -6 -35 -4
-41 11 -41 16 0 16 -1 -2 -16 -17 -14 -17 -15 -1 -10 15 5 16 3 6 -17 -7 -12
-21 -35 -32 -51 l-20 -28 21 11 c12 7 22 17 22 23 0 6 3 9 6 6 7 -8 -13 -47
-39 -75 -14 -16 -16 -23 -7 -23 21 0 -19 -39 -62 -61 -36 -19 -37 -19 -43 1
-4 11 -22 40 -40 64 -18 24 -31 46 -29 49 3 2 -9 16 -26 31 -18 14 -28 31 -24
37 3 6 1 15 -6 19 -10 6 -3 23 26 66 45 68 143 152 154 134 6 -9 13 -9 28 -1z
m-2227 -310 c-6 -18 -11 -49 -11 -70 0 -21 -4 -41 -10 -44 -5 -3 -10 -17 -10
-31 0 -13 -5 -24 -11 -24 -18 0 -3 112 22 166 23 51 38 53 20 3z m1194 -64
l30 -13 -42 -1 c-144 -3 -158 -230 -14 -231 31 -1 33 -2 17 -11 -23 -14 -80
-5 -113 16 -86 57 -81 194 10 239 39 19 72 20 112 1z m13 -68 c14 -17 -2 -42
-22 -34 -20 8 -21 47 -2 47 7 0 18 -6 24 -13z m-1182 -89 c5 -51 5 -52 -10
-28 -8 14 -15 45 -15 70 0 61 18 30 25 -42z m-69 10 c-3 -7 -5 -2 -5 12 0 14
2 19 5 13 2 -7 2 -19 0 -25z m1911 2 c46 -28 72 -76 72 -131 0 -78 -61 -129
-155 -129 -38 0 -105 21 -105 34 0 1 22 -2 49 -7 41 -9 53 -8 82 9 45 27 61
59 56 117 -4 50 -22 78 -72 108 l-30 19 35 0 c19 0 50 -9 68 -20z m-745 -45
c15 -21 16 -25 3 -25 -13 0 -36 28 -36 44 0 13 16 4 33 -19z m605 -13 c3 -17
-2 -22 -17 -22 -14 0 -21 6 -21 18 0 38 33 41 38 4z m397 18 c3 -5 1 -10 -4
-10 -6 0 -11 5 -11 10 0 6 2 10 4 10 3 0 8 -4 11 -10z m-2126 -54 c9 -34 8
-38 -3 -25 -16 17 -34 90 -18 74 6 -5 15 -28 21 -49z m1466 20 c23 -6 41 -19
43 -28 3 -16 1 -16 -30 0 -18 9 -58 22 -88 28 l-55 12 45 0 c25 0 63 -5 85
-12z m-10 -38 c7 -7 -3 -9 -34 -5 -24 3 -49 11 -55 17 -8 10 -1 11 34 6 25 -4
50 -12 55 -18z m-1128 -80 c-3 -8 -6 -5 -6 6 -1 11 2 17 5 13 3 -3 4 -12 1
-19z m-330 -298 c17 -10 36 -27 42 -38 9 -17 23 -18 230 -15 216 4 222 4 257
28 59 40 137 31 180 -21 12 -14 152 -34 246 -34 31 0 69 -5 85 -11 15 -6 47
-11 70 -10 24 1 62 -3 85 -10 24 -6 70 -12 103 -13 41 -2 74 -10 105 -26 37
-19 62 -24 135 -25 65 -1 97 2 115 14 57 34 165 8 198 -49 13 -23 25 -29 68
-34 127 -15 188 -76 186 -188 -1 -75 18 -91 98 -82 66 7 231 -19 274 -44 16
-9 43 -34 59 -55 54 -66 52 -105 -34 -641 -42 -262 -57 -309 -106 -344 -99
-69 -271 -51 -386 40 -24 20 -31 21 -60 10 -44 -16 -134 -14 -232 4 -44 8
-127 19 -185 24 -235 20 -380 39 -412 54 -31 15 -38 15 -71 1 -53 -22 -107
-19 -160 10 -44 23 -49 23 -81 10 -46 -20 -214 -20 -287 -1 -52 14 -61 13
-120 -5 -96 -31 -216 -28 -329 7 l-89 27 -51 -22 c-41 -18 -85 -24 -233 -33
-100 -6 -234 -12 -297 -13 -63 0 -129 -6 -145 -12 -37 -15 -239 -43 -263 -36
-10 2 -42 -11 -73 -32 -65 -43 -181 -89 -267 -105 -88 -18 -251 -8 -327 19
-249 89 -416 371 -376 634 44 289 275 523 589 598 69 17 109 20 195 17 106 -4
108 -4 102 16 -38 117 12 200 136 226 35 8 78 22 94 32 45 27 111 24 156 -8
37 -25 38 -25 85 -9 27 9 66 15 89 14 83 -5 89 -2 113 50 27 59 70 83 152 85
54 1 60 -1 127 -49 10 -7 18 -4 31 11 42 53 123 68 179 34z m-497 -45 c-7 -8
-16 -15 -21 -15 -5 0 -9 7 -9 15 0 9 9 15 21 15 18 0 19 -2 9 -15z m-1005 -24
c-6 -4 -26 -11 -45 -14 l-35 -6 30 14 c34 16 64 20 50 6z m2625 0 c0 -10 -40
-22 -52 -15 -18 11 -6 24 22 24 17 0 30 -4 30 -9z m-1645 -24 c-6 -14 -53 -33
-62 -24 -4 5 60 46 65 42 1 -1 0 -9 -3 -18z m-1155 -89 c-37 -68 -42 -73 -71
-70 -18 1 -28 -2 -24 -8 3 -5 17 -10 30 -10 15 0 36 -14 57 -39 57 -66 91 -64
171 13 52 50 78 56 128 30 28 -14 33 -14 54 0 14 9 30 16 37 16 9 0 12 13 10
44 -3 32 0 45 12 49 37 14 59 -100 36 -183 l-10 -36 -102 -11 c-143 -17 -287
-65 -396 -133 -22 -14 -25 -13 -52 17 -44 49 -61 128 -46 220 l8 51 81 40 c45
22 88 50 95 61 7 12 15 21 17 21 3 0 -12 -33 -35 -72z m4167 40 c-3 -8 -6 -5
-6 6 -1 11 2 17 5 13 3 -3 4 -12 1 -19z m-3982 -14 c30 -15 64 -37 76 -50 l22
-23 -43 -7 c-28 -5 -57 -20 -87 -45 -53 -47 -94 -52 -118 -15 -13 20 -14 32
-6 61 10 36 70 105 91 105 6 0 36 -12 65 -26z m3693 -83 c27 -53 32 -74 30
-115 -3 -50 -4 -51 -36 -54 -27 -3 -35 1 -39 17 -3 12 -9 19 -13 16 -4 -3 -13
8 -20 24 -6 16 -20 37 -31 47 -25 23 -24 32 11 88 20 31 36 46 47 44 10 -2 32
-32 51 -67z m-3378 12 c0 -5 -7 -17 -15 -27 -14 -19 -15 -19 -15 7 0 17 5 27
15 27 8 0 15 -3 15 -7z m3599 -20 c5 -4 -20 -33 -29 -33 -4 0 -7 14 -8 31 -1
27 1 29 16 18 9 -8 19 -15 21 -16z m41 -7 c0 -2 -7 -7 -16 -10 -8 -3 -12 -2
-9 4 6 10 25 14 25 6z m-162 -123 c-16 -20 -28 -15 -28 12 0 22 2 24 19 13 15
-9 17 -15 9 -25z m-38 -23 c0 -5 -5 -10 -11 -10 -5 0 -7 5 -4 10 3 6 8 10 11
10 2 0 4 -4 4 -10z m286 -106 c10 -35 13 -63 8 -74 -8 -17 -12 -15 -47 14 -37
33 -37 34 -23 67 28 67 41 65 62 -7z m184 40 c0 -2 -11 -3 -24 -2 -14 1 -23 5
-20 9 4 7 44 0 44 -7z m-4587 -41 c2 -5 1 -19 -3 -33 -6 -24 -7 -24 -11 8 -5
29 4 44 14 25z m4309 -15 c-7 -7 -12 -8 -12 -2 0 14 12 26 19 19 2 -3 -1 -11
-7 -17z m-4467 2 c3 -5 -1 -10 -10 -10 -9 0 -13 5 -10 10 3 6 8 10 10 10 2 0
7 -4 10 -10z m4605 -39 c0 -6 -4 -13 -10 -16 -5 -3 -10 1 -10 9 0 9 5 16 10
16 6 0 10 -4 10 -9z m44 -30 c3 -5 -5 -11 -19 -13 -20 -4 -23 -3 -14 8 13 16
25 18 33 5z m-4539 -41 c3 -6 -1 -7 -9 -4 -18 7 -21 14 -7 14 6 0 13 -4 16
-10z m-60 -80 c-30 -34 -94 -32 -108 3 -4 11 10 14 60 15 62 0 64 0 48 -18z
m4725 -39 c0 -8 -68 -68 -96 -84 -22 -13 -27 14 -5 29 12 8 21 24 21 34 0 18
16 25 63 29 9 0 17 -3 17 -8z m-104 -251 c46 -26 122 -115 110 -128 -3 -2 -26
3 -53 11 -26 9 -64 18 -84 21 -19 4 -44 13 -55 21 -18 14 -18 14 5 15 22 0 23
3 19 45 -3 25 -3 45 1 45 3 0 29 -13 57 -30z m-4726 -293 c0 -17 -10 -28 -36
-41 -20 -9 -38 -15 -41 -12 -6 5 57 76 68 76 5 0 9 -10 9 -23z"/>
<path d="M1474 3270 c-85 -34 -63 -181 29 -204 31 -8 42 -6 65 11 37 27 49 78
29 125 -22 53 -80 85 -123 68z m56 -35 c16 -20 1 -39 -26 -33 -27 5 -32 48 -6
48 11 0 25 -7 32 -15z"/>
<path d="M926 3129 c-45 -53 -29 -151 29 -177 33 -15 40 -15 80 3 53 26 71 95
40 155 -31 60 -107 70 -149 19z m101 -5 c3 -8 -2 -23 -11 -32 -15 -15 -17 -15
-32 0 -21 21 -11 48 16 48 11 0 23 -7 27 -16z"/>
<path d="M1260 3101 c-46 -15 -89 -41 -100 -60 -12 -24 -13 -68 -1 -75 4 -3
11 -18 14 -33 12 -58 106 -122 155 -106 75 23 97 65 87 168 -3 40 -12 81 -19
90 -14 20 -96 29 -136 16z m75 -44 c-26 -32 -27 -33 -81 -23 -30 6 -54 14 -54
18 0 17 58 37 108 38 l53 0 -26 -33z m45 -141 c0 -7 -9 -21 -19 -30 -25 -23
-94 -19 -99 7 -4 20 37 24 56 5 9 -9 12 -7 12 9 0 12 8 23 18 26 22 5 32 -1
32 -17z"/>
<path d="M2447 3383 c-4 -3 -7 -13 -7 -22 1 -13 3 -13 11 2 11 19 8 33 -4 20z"/>
<path d="M2657 3219 c-29 -33 -15 -41 15 -9 15 17 22 30 15 30 -7 0 -21 -9
-30 -21z"/>
<path d="M2456 3025 c4 -8 8 -15 10 -15 2 0 4 7 4 15 0 8 -4 15 -10 15 -5 0
-7 -7 -4 -15z"/>
<path d="M2122 2615 c-21 -9 -38 -26 -45 -45 -15 -40 -46 -39 -72 2 -23 38
-50 46 -122 38 -64 -7 -97 -35 -112 -95 l-11 -43 -80 4 c-59 3 -90 0 -117 -12
-50 -22 -81 -19 -104 10 -29 37 -63 40 -122 13 -29 -14 -77 -30 -107 -37 -72
-17 -87 -25 -110 -63 -25 -41 -25 -78 0 -128 l21 -39 -28 -12 c-16 -6 -80 -12
-143 -13 -122 -3 -203 -19 -305 -62 -181 -76 -336 -237 -394 -411 -99 -294 71
-620 364 -697 76 -19 224 -19 300 0 77 20 170 64 218 103 33 27 46 31 95 31
94 -1 224 21 260 43 27 17 37 18 64 9 38 -13 118 -14 218 -1 41 6 132 12 201
14 111 3 132 6 182 30 55 25 57 26 99 10 105 -38 138 -45 223 -45 72 0 104 5
159 25 66 24 71 24 100 8 49 -26 231 -29 296 -6 44 16 54 16 73 4 76 -47 113
-51 182 -18 l45 22 24 -23 c20 -18 45 -24 157 -37 74 -8 188 -19 254 -24 66
-5 154 -16 195 -25 104 -22 172 -22 204 -2 38 26 61 21 108 -23 35 -32 57 -43
116 -56 125 -28 207 -7 240 60 12 24 26 100 92 506 13 74 25 184 28 243 4 103
4 109 -19 134 -33 35 -72 50 -181 68 -85 14 -97 14 -139 -1 l-46 -17 -37 29
-36 29 0 86 c0 71 -3 91 -20 112 -23 29 -119 62 -156 53 -24 -6 -49 11 -59 43
-14 46 -113 70 -166 40 -15 -8 -61 -14 -124 -14 -87 -1 -103 1 -132 21 -38 26
-100 39 -142 29 -19 -4 -41 0 -61 10 -19 10 -51 15 -83 14 -29 -1 -64 3 -78 8
-14 6 -47 11 -75 12 -27 0 -94 5 -149 10 -55 6 -106 11 -112 11 -7 0 -13 7
-13 15 0 20 -52 45 -95 45 -25 0 -44 -8 -61 -26 -25 -24 -30 -25 -192 -29 -92
-2 -174 -4 -182 -5 -8 0 -43 0 -77 0 -58 1 -63 3 -69 26 -13 51 -75 68 -142
39z m88 -164 c0 -119 0 -119 -25 -123 -14 -3 -25 -1 -25 4 0 5 -10 2 -22 -6
-52 -37 -108 -4 -108 63 0 22 3 47 6 56 9 22 61 47 84 40 18 -6 20 -1 20 39 0
46 0 46 35 46 l35 0 0 -119z m-230 7 c18 -57 34 -111 37 -120 3 -15 -2 -18
-32 -18 -29 0 -38 5 -42 21 -5 19 -10 20 -69 13 l-64 -6 0 31 c0 18 7 61 16
97 18 71 31 82 91 83 32 1 32 1 63 -101z m910 62 c0 -20 5 -30 15 -30 23 0 19
-41 -5 -47 -21 -6 -36 -43 -26 -68 3 -8 12 -12 21 -9 11 5 15 -1 15 -20 0 -26
-2 -27 -47 -24 l-48 3 -3 63 c-2 34 -7 62 -12 62 -16 0 -11 40 5 46 8 4 15 14
15 23 0 24 9 31 42 31 24 0 28 -4 28 -30z m-595 -73 c12 -69 20 -71 33 -7 12
54 15 60 38 60 36 0 38 -20 12 -102 l-23 -73 -41 -3 -40 -3 -27 78 c-15 43
-27 81 -27 85 0 7 50 16 62 11 3 -2 9 -22 13 -46z m265 33 c29 -29 26 -68 -6
-80 -14 -6 -39 -10 -55 -10 -20 0 -28 -4 -23 -11 4 -7 23 -9 50 -5 39 5 44 3
44 -14 0 -25 -29 -40 -75 -40 -51 0 -85 36 -85 90 0 56 34 90 90 90 27 0 47
-7 60 -20z m100 8 c0 -9 3 -9 12 0 17 17 58 15 80 -5 13 -12 18 -31 18 -74 0
-76 -6 -89 -42 -89 l-30 0 6 53 c7 61 -4 88 -28 68 -11 -9 -16 -30 -16 -62 0
-48 -1 -49 -30 -49 l-30 0 0 85 0 85 30 0 c17 0 30 -5 30 -12z m343 -63 c-5
-56 -4 -65 11 -65 20 0 36 38 36 86 0 32 2 34 36 34 33 0 36 -2 30 -22 -3 -13
-6 -51 -6 -85 0 -54 -3 -62 -22 -69 -15 -4 -25 -1 -34 10 -8 11 -14 13 -19 7
-9 -15 -70 -14 -83 2 -11 13 -15 46 -13 120 1 47 1 47 36 47 l34 0 -6 -65z
m233 44 c40 1 73 -32 58 -57 -12 -19 -54 -29 -54 -13 0 17 -27 13 -34 -5 -3
-9 -6 -28 -6 -42 0 -38 -14 -54 -41 -50 -23 3 -24 6 -21 68 4 102 8 113 40
105 15 -4 41 -6 58 -6z m-1826 -38 c0 -39 10 -52 32 -40 35 19 66 3 77 -39 23
-93 22 -101 -5 -108 -29 -7 -44 7 -44 43 0 33 -11 53 -27 53 -13 0 -14 -10 -8
-55 l6 -55 -30 0 c-17 0 -31 3 -31 8 0 4 -7 47 -16 96 -8 49 -13 95 -10 102 9
22 56 18 56 -5z m2038 3 c15 -11 22 -25 22 -49 0 -29 -4 -36 -25 -41 -14 -3
-39 -4 -55 -2 -19 3 -29 1 -27 -6 2 -6 21 -11 43 -12 32 0 40 -4 42 -21 6 -41
-83 -38 -130 4 -27 25 -24 88 7 118 29 29 88 34 123 9z m147 -8 c34 -15 45
-38 24 -52 -6 -3 -22 -1 -35 7 -13 7 -27 9 -31 4 -5 -4 -3 -10 4 -12 57 -21
84 -91 44 -113 -28 -15 -73 -12 -99 6 -42 29 -20 67 23 38 42 -27 43 -5 1 29
-44 38 -47 74 -6 94 32 16 34 16 75 -1z m-1915 -18 c32 -34 22 -60 -29 -79
-27 -10 -39 -19 -32 -23 7 -4 22 -1 34 7 43 27 67 -8 25 -37 -36 -26 -93 -21
-117 10 -30 38 -27 80 8 115 36 36 81 39 111 7z m-342 -14 c2 -16 -4 -23 -21
-28 l-25 -6 19 -72 c19 -77 16 -88 -27 -88 -18 0 -23 10 -35 68 -14 64 -16 67
-41 64 -20 -2 -28 3 -33 19 -9 28 -1 35 65 53 71 19 94 17 98 -10z m2680 7
c22 -14 10 -47 -16 -43 -25 4 -30 -13 -7 -22 22 -8 19 -46 -4 -46 -15 0 -20
-10 -25 -51 -6 -47 -8 -50 -34 -47 -26 3 -27 4 -27 80 -1 55 3 79 12 82 7 3
13 11 13 19 0 32 55 49 88 28z m-183 -25 c52 -22 68 -67 44 -120 -36 -78 -159
-46 -159 42 1 49 27 80 78 91 1 1 18 -5 37 -13z m403 -90 c11 -11 15 -29 13
-58 -2 -24 -4 -54 -5 -68 -1 -19 -7 -26 -28 -28 -16 -2 -28 2 -28 8 0 6 -10 8
-25 4 -63 -16 -108 74 -48 97 14 5 40 7 56 3 22 -5 28 -3 25 7 -3 9 -18 13
-41 11 -40 -3 -55 11 -36 35 17 19 94 13 117 -11z m-1535 -135 c62 -30 67 -51
32 -147 -31 -86 -48 -100 -103 -84 -55 15 -91 12 -138 -11 -52 -24 -84 -83
-84 -150 0 -58 18 -90 60 -111 48 -25 87 -22 148 8 28 14 60 24 69 22 24 -4
72 -104 73 -149 0 -41 -38 -83 -110 -120 -62 -31 -196 -38 -269 -14 -67 22
-152 100 -185 168 -78 161 -49 370 70 497 45 49 123 94 187 111 62 16 198 5
250 -20z m-615 -9 c17 -17 19 -45 25 -262 4 -134 7 -297 7 -362 0 -118 0 -119
-26 -128 -14 -6 -61 -10 -104 -10 -67 0 -81 3 -89 18 -5 10 -15 142 -20 293
-6 151 -13 306 -16 344 -8 94 1 106 91 115 109 11 113 11 132 -8z m938 8 l27
-10 -5 -135 -5 -135 50 68 c27 37 71 98 98 135 65 89 86 98 138 64 66 -44 111
-88 111 -109 0 -16 -71 -106 -202 -253 -17 -21 -16 -23 72 -140 49 -66 90
-129 90 -141 0 -24 -26 -50 -94 -93 -53 -33 -81 -38 -107 -18 -17 13 -158 233
-161 251 -1 6 -4 -39 -7 -100 -4 -70 -12 -118 -20 -128 -18 -22 -182 -23 -201
-2 -9 11 -10 93 -4 338 3 178 9 341 13 363 6 37 9 40 46 46 66 10 132 10 161
-1z m-1243 -15 c17 -16 21 -66 39 -463 10 -245 10 -274 -4 -288 -11 -11 -43
-18 -101 -21 -104 -7 -103 -9 -112 139 -4 58 -11 111 -14 117 -7 11 -134 1
-147 -11 -3 -4 -1 -59 5 -122 6 -64 8 -123 5 -130 -8 -21 -30 -27 -119 -33
-64 -4 -83 -2 -93 9 -8 10 -24 132 -42 314 -16 165 -32 324 -35 354 -8 80 1
88 112 102 128 16 124 21 139 -184 l6 -88 48 0 c26 0 62 3 80 6 l32 7 -6 71
c-4 39 -9 96 -12 126 -7 74 5 87 86 98 97 14 117 13 133 -3z m-723 -33 c31
-15 35 -22 38 -61 4 -57 -32 -177 -58 -191 -10 -5 -49 -10 -87 -10 -176 0
-287 -138 -224 -277 24 -51 63 -73 131 -73 59 0 111 23 154 69 17 17 37 31 47
31 19 0 80 -64 103 -109 38 -72 3 -142 -103 -211 -199 -127 -445 -109 -590 45
-74 78 -104 149 -109 256 -10 211 110 390 333 494 116 54 294 73 365 37z
m2708 4 c94 -9 158 -19 168 -27 14 -11 16 -27 11 -89 -8 -119 -2 -114 -127
-106 -118 8 -120 7 -120 -53 0 -28 1 -28 78 -34 116 -9 115 -8 109 -85 -7 -89
-14 -94 -117 -83 -47 4 -87 7 -89 5 -2 -2 -5 -23 -5 -46 l-1 -43 102 -10 c56
-5 108 -15 114 -22 16 -16 2 -158 -18 -179 -17 -17 -53 -15 -283 12 -151 18
-163 27 -155 108 9 87 34 406 41 516 4 62 12 114 20 128 17 27 48 28 272 8z
m450 -52 c24 -7 63 -77 152 -276 24 -54 45 -97 46 -95 1 1 10 67 19 147 10 80
21 153 27 163 11 21 57 22 144 3 76 -16 84 -21 84 -52 0 -44 -100 -668 -112
-698 -11 -28 -12 -28 -82 -24 -110 7 -123 17 -180 133 -27 55 -64 135 -82 179
-37 91 -36 93 -60 -92 -10 -82 -22 -139 -31 -148 -16 -15 -98 -11 -163 10 -52
16 -53 -22 15 535 13 112 30 210 37 219 10 12 28 13 88 8 41 -3 85 -9 98 -12z"/>
<path d="M2094 2416 c-10 -26 1 -51 21 -51 15 0 21 8 23 33 3 27 0 32 -18 32
-11 0 -23 -6 -26 -14z"/>
<path d="M1897 2470 c-3 -8 -8 -27 -11 -42 -5 -23 -3 -28 14 -28 21 0 24 15
10 60 -5 18 -9 21 -13 10z"/>
<path d="M2476 2444 c-8 -22 -5 -24 22 -17 25 6 25 26 0 31 -9 2 -18 -5 -22
-14z"/>
<path d="M3370 2395 c-11 -13 -8 -15 20 -15 21 0 30 4 28 13 -7 18 -33 20 -48
2z"/>
<path d="M1607 2373 c-13 -13 -7 -21 13 -16 11 3 20 9 20 14 0 10 -24 12 -33
2z"/>
<path d="M3787 2324 c-11 -11 -8 -52 3 -59 17 -10 41 16 38 39 -3 21 -28 33
-41 20z"/>
<path d="M4150 2200 c0 -5 9 -10 20 -10 11 0 20 5 20 10 0 6 -9 10 -20 10 -11
0 -20 -4 -20 -10z"/>
<path d="M4040 3341 c0 -6 11 -11 25 -11 15 0 39 -7 55 -15 17 -9 30 -12 30
-8 0 9 -42 29 -82 39 -18 4 -28 2 -28 -5z"/>
<path d="M3405 2950 l-30 -8 27 -1 c22 -1 31 -9 42 -35 8 -19 29 -45 46 -58
18 -12 43 -44 56 -70 28 -54 65 -78 123 -78 58 0 81 12 150 75 43 40 66 55 78
51 15 -6 15 -5 -1 13 -19 20 -19 20 -37 -3 -40 -51 -179 -52 -217 -1 -15 20
-19 21 -39 8 -50 -33 -153 25 -153 88 0 16 -3 28 -7 28 -5 -1 -21 -5 -38 -9z"/>
<path d="M4307 2889 c7 -7 15 -10 18 -7 3 3 -2 9 -12 12 -14 6 -15 5 -6 -5z"/>
<path d="M4730 2819 c0 -5 5 -7 10 -4 6 3 10 8 10 11 0 2 -4 4 -10 4 -5 0 -10
-5 -10 -11z"/>
<path d="M4776 2812 c-4 -7 -3 -12 2 -12 4 0 16 -16 25 -35 l17 -36 24 28 c27
31 25 49 -4 31 -16 -10 -22 -8 -38 12 -13 16 -21 20 -26 12z"/>
<path d="M4723 2765 c0 -22 2 -30 4 -17 2 12 2 30 0 40 -3 9 -5 -1 -4 -23z"/>
<path d="M215 2759 c-4 -6 -4 -13 -1 -16 3 -4 6 -1 6 5 0 20 28 13 44 -10 9
-12 16 -18 16 -12 0 14 -33 44 -48 44 -6 0 -14 -5 -17 -11z"/>
<path d="M202 2705 c0 -16 2 -22 5 -12 2 9 2 23 0 30 -3 6 -5 -1 -5 -18z"/>
<path d="M3520 2666 c0 -9 12 -29 26 -44 l27 -27 -23 40 c-30 51 -30 51 -30
31z"/>
<path d="M3601 2665 c8 -7 30 -16 49 -20 46 -9 36 -1 -19 19 -34 11 -41 12
-30 1z"/>
<path d="M213 2645 c2 -11 17 -34 35 -52 30 -29 32 -30 32 -10 0 12 7 34 14
50 8 15 11 27 6 27 -5 0 -12 -9 -15 -20 -8 -26 -32 -25 -56 3 -18 21 -19 21
-16 2z"/>
<path d="M4626 2604 c-5 -13 -4 -14 7 -6 8 7 18 8 22 4 5 -4 5 -1 1 6 -10 17
-23 15 -30 -4z"/>
<path d="M5080 2456 c0 -2 9 -6 20 -9 11 -3 18 -1 14 4 -5 9 -34 13 -34 5z"/>
<path d="M5111 2397 c-3 -48 -82 -108 -101 -77 -5 8 -6 18 -4 22 3 4 -6 20
-20 35 -25 27 -26 27 -43 8 -16 -17 -16 -17 -1 -6 9 7 21 10 27 7 15 -10 33
-75 27 -100 l-5 -22 44 20 c47 22 90 82 82 114 -4 16 -5 16 -6 -1z"/>
<path d="M6 2331 c-4 -5 3 -7 14 -4 23 6 26 13 6 13 -8 0 -17 -4 -20 -9z"/>
<path d="M160 2303 c8 -3 26 -15 40 -27 l25 -21 -24 28 c-14 15 -32 27 -40 26
-14 0 -14 -1 -1 -6z"/>
<path d="M5098 2303 c7 -3 16 -2 19 1 4 3 -2 6 -13 5 -11 0 -14 -3 -6 -6z"/>
<path d="M0 2288 c0 -30 67 -95 103 -100 17 -3 40 -8 49 -13 17 -7 17 -5 3 29
-9 20 -14 46 -12 59 2 12 2 16 0 10 -3 -7 -8 -13 -12 -13 -5 0 -6 -11 -3 -25
3 -20 0 -25 -17 -25 -37 0 -82 30 -96 63 -8 19 -14 25 -15 15z"/>
<path d="M4831 2274 c-12 -15 -21 -32 -21 -38 0 -6 10 4 22 22 13 20 26 31 35
28 8 -3 11 -1 8 4 -10 16 -22 12 -44 -16z"/>
<path d="M4974 1689 c-3 -6 -1 -16 5 -22 8 -8 11 -5 11 11 0 24 -5 28 -16 11z"/>
<path d="M1099 450 c-42 -5 -103 -18 -135 -30 -139 -50 -183 -61 -278 -71
-121 -12 -293 2 -375 32 -133 49 -165 54 -233 40 -34 -7 -66 -15 -70 -17 -5
-3 -8 -95 -8 -205 l0 -199 2560 0 2560 0 0 200 0 200 -27 -6 c-16 -3 -35 -8
-44 -10 -8 -2 -62 -9 -119 -14 -129 -12 -238 -1 -378 40 -206 59 -384 58 -672
-5 -231 -50 -303 -58 -474 -52 -131 4 -169 10 -286 40 -74 20 -173 41 -219 48
-107 15 -274 6 -401 -21 -378 -83 -600 -88 -890 -20 -212 49 -371 65 -511 50z
m-697 -142 c-15 -15 -26 -4 -18 18 5 13 9 15 18 6 9 -9 9 -15 0 -24z m228 -14
c0 -8 -7 -14 -15 -14 -15 0 -21 21 -9 33 10 9 24 -2 24 -19z"/>
</g>
</svg>
