<svg width="127" height="127" viewBox="0 0 127 127" fill="none" xmlns="http://www.w3.org/2000/svg">
<g filter="url(#filter0_d_57_6812)">
<path d="M100.966 83.2479C89.7997 104.2 63.7621 112.135 42.8072 100.966C21.8542 89.7991 13.9203 63.7583 25.0884 42.8066C36.2553 21.8535 62.2942 13.9209 83.2472 25.0878C104.203 36.256 112.135 62.2948 100.966 83.2479Z" fill="url(#paint0_radial_57_6812)"/>
<path opacity="0.4" d="M51.7144 21.5414C65.2311 18.2549 80.0652 22.4687 89.786 33.7159C103.625 49.7248 101.865 73.9208 85.8545 87.7584C69.8462 101.596 45.6495 99.8359 31.8113 83.827C18.093 67.9567 19.7077 44.0437 35.3347 30.1482C35.1936 30.2658 35.053 30.3821 34.913 30.5027C16.9511 46.0278 14.9745 73.1782 30.502 91.1414C46.0271 109.103 73.1781 111.079 91.1406 95.553C109.104 80.0255 111.079 52.877 95.5517 34.915C84.3748 21.9805 67.1754 17.3374 51.7144 21.5414Z" fill="url(#paint1_radial_57_6812)"/>
<path opacity="0.3" d="M84.4824 33.2917C94.4091 46.8233 90.4185 66.6226 75.5708 77.5152C60.7206 88.4084 40.6358 86.2688 30.7097 72.7372C20.7849 59.2055 24.7749 39.4057 39.6257 28.5124C54.4728 17.6204 74.5576 19.7606 84.4824 33.2917Z" fill="url(#paint2_radial_57_6812)"/>
<path opacity="0.5" d="M67.5885 28.4316C73.6291 35.4176 70.5715 47.9565 60.7586 56.4378C50.947 64.9196 38.0977 66.13 32.0571 59.1433C26.0183 52.1561 29.0759 39.6159 38.8882 31.1347C48.6986 22.6547 61.5504 21.4443 67.5885 28.4316Z" fill="url(#paint3_radial_57_6812)"/>
<path opacity="0.4" d="M35.5053 85.1095C36.0751 82.9879 40.4121 82.9755 44.0382 85.6437C47.6649 88.3101 46.4919 92.1508 44.0382 92.7915C41.5845 93.4321 34.0107 90.6575 35.5053 85.1095Z" fill="#D3D3D3"/>
<path opacity="0.4" d="M75.5093 93.8942C75.151 91.986 77.1426 89.5547 80.3426 88.8431C83.5445 88.1316 86.5319 89.1995 87.0288 92.1141C87.5276 95.0305 84.0135 97.8039 81.2544 97.0221C78.4954 96.2396 75.9347 96.1681 75.5093 93.8942Z" fill="#D3D3D3"/>
<path opacity="0.4" d="M44.0026 97.1558C44.4523 95.558 47.9876 96.6676 48.0218 98.837C48.056 101.003 43.505 98.926 44.0026 97.1558Z" fill="#D3D3D3"/>
<path opacity="0.4" d="M54.5134 97.8039C55.192 98.5608 57.2314 99.3532 57.6568 97.1558C58.0829 94.9602 52.3626 95.4006 54.5134 97.8039Z" fill="#D3D3D3"/>
<path opacity="0.4" d="M69.7472 100.72C71.2704 100.901 73.4088 100.993 73.7297 98.9421C74.0513 96.8915 69.4636 97.0128 68.4672 98.0819C67.4714 99.1517 68.3982 100.559 69.7472 100.72Z" fill="#D3D3D3"/>
<path opacity="0.4" d="M91.9362 52.9995C92.9245 53.7794 95.92 53.9953 96.4175 51.2928C96.9139 48.5884 93.5708 47.3806 91.9362 47.9503C90.3011 48.5182 88.8786 50.5813 91.9362 52.9995Z" fill="#D3D3D3"/>
<path opacity="0.4" d="M87.0774 39.3447C88.1814 40.3231 92.3219 40.8368 93.3028 39.0598C94.2842 37.281 91.6832 34.8205 88.3096 34.5798C84.9347 34.3378 83.1416 35.8598 87.0774 39.3447Z" fill="#D3D3D3"/>
<path opacity="0.4" d="M61.5987 33.5958C62.9652 34.5605 66.9745 33.9397 67.3296 31.6646C67.6841 29.3888 63.7601 28.8769 61.5987 29.6662C59.4349 30.4536 59.0965 31.8281 61.5987 33.5958Z" fill="#D3D3D3"/>
<path opacity="0.4" d="M52.0391 27.9663C53.5505 28.6635 55.7592 28.4639 55.8556 27.3966C55.9501 26.3299 54.5289 25.6905 52.9646 25.8323C51.3979 25.9735 50.1894 27.1117 52.0391 27.9663Z" fill="#D3D3D3"/>
<path opacity="0.4" d="M32.623 37.281C32.8208 36.1925 33.9745 37.0689 34.0454 37.638C34.1176 38.2059 32.3406 38.8471 32.623 37.281Z" fill="#D3D3D3"/>
<path opacity="0.4" d="M35.3094 51.6486C34.958 50.7137 36.465 50.937 36.5359 51.6486C36.6068 52.3595 35.5793 52.3595 35.3094 51.6486Z" fill="#D3D3D3"/>
<path opacity="0.4" d="M31.4145 73.9786C31.9114 74.8332 33.365 74.4065 33.2425 73.198C33.1218 71.9889 30.9182 73.1253 31.4145 73.9786Z" fill="#D3D3D3"/>
<path opacity="0.4" d="M29.2096 83.5757C29.4136 83.9283 30.504 84.3146 30.5686 83.1304C30.6321 81.9449 28.7121 82.718 29.2096 83.5757Z" fill="#D3D3D3"/>
<path opacity="0.4" d="M64.4675 103.778C65.2263 104.17 65.9609 103.46 65.694 102.604C65.4272 101.752 62.92 102.979 64.4675 103.778Z" fill="#D3D3D3"/>
<path opacity="0.4" d="M60.9476 103.46C61.4539 102.909 60.0924 102.693 59.5594 103.103C59.0264 103.512 60.3064 104.152 60.9476 103.46Z" fill="#D3D3D3"/>
<path opacity="0.4" d="M56.8923 101.591C57.4938 101.982 57.9584 101.752 58.0125 101.219C58.066 100.685 55.8263 100.898 56.8923 101.591Z" fill="#D3D3D3"/>
<path opacity="0.4" d="M62.7071 90.3906C62.5622 90.0411 64.1053 89.8557 63.966 90.3906C63.8261 90.923 62.974 91.0294 62.7071 90.3906Z" fill="#D3D3D3"/>
<path opacity="0.4" d="M87.0774 71.0274C87.0818 70.2281 88.3637 70.281 88.4159 71.0274C88.4688 71.7756 87.0706 71.8285 87.0774 71.0274Z" fill="#D3D3D3"/>
<path opacity="0.4" d="M93.9645 58.28C93.9116 57.4802 95.4566 57.4261 95.5113 58.28C95.5642 59.1328 94.018 59.0805 93.9645 58.28Z" fill="#D3D3D3"/>
<path opacity="0.4" d="M82.6022 30.2769C82.4865 29.3508 83.5625 29.3701 83.7211 30.2769C83.8822 31.1825 82.6575 30.7279 82.6022 30.2769Z" fill="#D3D3D3"/>
<path opacity="0.4" d="M75.1354 29.9566C74.2976 29.3652 75.5602 28.8414 76.0938 29.3185C76.6293 29.7962 76.0422 30.5973 75.1354 29.9566Z" fill="#D3D3D3"/>
<path opacity="0.4" d="M68.0419 26.5961C67.507 26.3299 68.1999 25.295 68.894 25.8118C69.5875 26.3299 68.5737 26.863 68.0419 26.5961Z" fill="#D3D3D3"/>
<path opacity="0.4" d="M64.1994 23.6094C63.6247 22.9333 64.8923 23.1286 65.3202 23.3426C65.7475 23.5565 65.1069 24.6767 64.1994 23.6094Z" fill="#D3D3D3"/>
<path opacity="0.4" d="M73.534 25.6706C73.0016 24.5691 74.3886 25.3839 74.2816 25.6706C74.174 25.9567 73.534 25.6706 73.534 25.6706Z" fill="#D3D3D3"/>
<path opacity="0.4" d="M64.3069 25.8118C63.8261 25.4237 64.7211 25.3932 64.7541 25.7981C64.7864 26.2024 64.3069 25.8118 64.3069 25.8118Z" fill="#D3D3D3"/>
<path opacity="0.4" d="M56.1223 26.2373C55.8705 26.0532 56.4532 25.5966 56.7599 25.9437C57.0671 26.2901 56.5801 26.57 56.1223 26.2373Z" fill="#D3D3D3"/>
<path opacity="0.4" d="M46.2778 32.7661C45.7945 32.3749 47.2394 31.8767 47.7712 32.4103C48.3054 32.9452 47.0248 33.3713 46.2778 32.7661Z" fill="#D3D3D3"/>
</g>
<defs>
<filter id="filter0_d_57_6812" x="6.29425e-05" y="1.90735e-06" width="126.055" height="126.055" filterUnits="userSpaceOnUse" color-interpolation-filters="sRGB">
<feFlood flood-opacity="0" result="BackgroundImageFix"/>
<feColorMatrix in="SourceAlpha" type="matrix" values="0 0 0 0 0 0 0 0 0 0 0 0 0 0 0 0 0 0 127 0" result="hardAlpha"/>
<feOffset/>
<feGaussianBlur stdDeviation="10.0138"/>
<feComposite in2="hardAlpha" operator="out"/>
<feColorMatrix type="matrix" values="0 0 0 0 1 0 0 0 0 1 0 0 0 0 1 0 0 0 0.87 0"/>
<feBlend mode="normal" in2="BackgroundImageFix" result="effect1_dropShadow_57_6812"/>
<feBlend mode="normal" in="SourceGraphic" in2="effect1_dropShadow_57_6812" result="shape"/>
</filter>
<radialGradient id="paint0_radial_57_6812" cx="0" cy="0" r="1" gradientUnits="userSpaceOnUse" gradientTransform="translate(58.7562 56.8592) scale(49.4162 49.4162)">
<stop stop-color="white"/>
<stop offset="0.6719" stop-color="#EDEDED"/>
<stop offset="1" stop-color="#E2E2E2"/>
</radialGradient>
<radialGradient id="paint1_radial_57_6812" cx="0" cy="0" r="1" gradientUnits="userSpaceOnUse" gradientTransform="translate(63.0273 63.0271) scale(42.9918 42.9918)">
<stop stop-color="white"/>
<stop offset="0.6719" stop-color="#EDEDED"/>
<stop offset="1" stop-color="#E2E2E2"/>
</radialGradient>
<radialGradient id="paint2_radial_57_6812" cx="0" cy="0" r="1" gradientUnits="userSpaceOnUse" gradientTransform="translate(57.5966 53.0141) rotate(4.57712) scale(31.9003 31.9003)">
<stop stop-color="white"/>
<stop offset="0.6719" stop-color="#EDEDED"/>
<stop offset="1" stop-color="#E2E2E2"/>
</radialGradient>
<radialGradient id="paint3_radial_57_6812" cx="0" cy="0" r="1" gradientUnits="userSpaceOnUse" gradientTransform="translate(49.8228 43.7871) scale(20.3866 20.3866)">
<stop stop-color="white"/>
<stop offset="0.6719" stop-color="#EDEDED"/>
<stop offset="1" stop-color="#E2E2E2"/>
</radialGradient>
</defs>
</svg>
