<svg width="216" height="216" viewBox="0 0 216 216" fill="none" xmlns="http://www.w3.org/2000/svg">
<path d="M92.5009 55.807L80.2434 3.17718L95.6505 54.9728L92.5009 55.807Z" fill="url(#paint0_linear_57_6848)"/>
<path d="M75.6024 64.2524L46.0818 18.9886L78.276 62.3917L75.6024 64.2524Z" fill="url(#paint1_linear_57_6848)"/>
<path d="M62.6116 77.9688L19.3909 45.5296L64.4879 75.3037L62.6116 77.9688Z" fill="url(#paint2_linear_57_6848)"/>
<path d="M55.0948 95.2978L3.3877 79.6018L55.9473 92.1537L55.0948 95.2978Z" fill="url(#paint3_linear_57_6848)"/>
<path d="M53.9608 114.155L0 117.09L53.6865 110.91L53.9608 114.155Z" fill="url(#paint4_linear_57_6848)"/>
<path d="M59.3434 132.263L9.6394 153.477L57.9749 129.308L59.3434 132.263Z" fill="url(#paint5_linear_57_6848)"/>
<path d="M70.5948 147.44L31.1448 184.37L68.2977 145.13L70.5948 147.44Z" fill="url(#paint6_linear_57_6848)"/>
<path d="M86.3593 157.851L61.9182 206.047L83.4101 156.467L86.3593 157.851Z" fill="url(#paint7_linear_57_6848)"/>
<path d="M104.731 162.243L98.2517 215.894L101.488 161.95L104.731 162.243Z" fill="url(#paint8_linear_57_6848)"/>
<path d="M123.5 160.087L135.759 212.716L120.351 160.922L123.5 160.087Z" fill="url(#paint9_linear_57_6848)"/>
<path d="M140.4 151.641L169.921 196.905L137.726 153.503L140.4 151.641Z" fill="url(#paint10_linear_57_6848)"/>
<path d="M153.391 137.925L196.611 170.361L151.515 140.59L153.391 137.925Z" fill="url(#paint11_linear_57_6848)"/>
<path d="M160.906 120.59L212.614 136.289L160.053 123.737L160.906 120.59Z" fill="url(#paint12_linear_57_6848)"/>
<path d="M162.039 101.734L216 98.8019L162.316 104.981L162.039 101.734Z" fill="url(#paint13_linear_57_6848)"/>
<path d="M156.659 83.6274L206.359 62.4155L158.025 86.5835L156.659 83.6274Z" fill="url(#paint14_linear_57_6848)"/>
<path d="M145.407 68.4518L184.855 31.5218L147.703 70.7617L145.407 68.4518Z" fill="url(#paint15_linear_57_6848)"/>
<path d="M129.642 58.0399L154.081 9.84431L132.592 59.4267L129.642 58.0399Z" fill="url(#paint16_linear_57_6848)"/>
<path d="M111.268 53.6486L117.748 0L114.515 53.9413L111.268 53.6486Z" fill="url(#paint17_linear_57_6848)"/>
<path d="M151 108C151 131.75 131.748 151 108 151C84.2517 151 65 131.75 65 108C65 84.2522 84.2517 65 108 65C131.748 64.9996 151 84.2518 151 108Z" fill="url(#paint18_radial_57_6848)"/>
<defs>
<linearGradient id="paint0_linear_57_6848" x1="96.8369" y1="66.4353" x2="78.0962" y2="-8.53521" gradientUnits="userSpaceOnUse">
<stop stop-color="#FFFF83"/>
<stop offset="1" stop-color="#FFD700" stop-opacity="0"/>
</linearGradient>
<linearGradient id="paint1_linear_57_6848" x1="82.4036" y1="67.4489" x2="29.5" y2="5.5" gradientUnits="userSpaceOnUse">
<stop stop-color="#FFFF83"/>
<stop offset="1" stop-color="#FFD700" stop-opacity="0"/>
</linearGradient>
<linearGradient id="paint2_linear_57_6848" x1="73.5964" y1="86.7614" x2="21.845" y2="43.694" gradientUnits="userSpaceOnUse">
<stop stop-color="#FFFF83"/>
<stop offset="1" stop-color="#FFD700" stop-opacity="0"/>
</linearGradient>
<linearGradient id="paint3_linear_57_6848" x1="53.9562" y1="102.485" x2="16.5527" y2="76.9105" gradientUnits="userSpaceOnUse">
<stop stop-color="#FFFF83"/>
<stop offset="1" stop-color="#FFD700" stop-opacity="0"/>
</linearGradient>
<linearGradient id="paint4_linear_57_6848" x1="67.5469" y1="118.771" x2="12.8064" y2="112.355" gradientUnits="userSpaceOnUse">
<stop stop-color="#FFFF83"/>
<stop offset="1" stop-color="#FFD700" stop-opacity="0"/>
</linearGradient>
<linearGradient id="paint5_linear_57_6848" x1="69.1286" y1="121.583" x2="23.193" y2="149.814" gradientUnits="userSpaceOnUse">
<stop stop-color="#FFFF83"/>
<stop offset="1" stop-color="#FFD700" stop-opacity="0"/>
</linearGradient>
<linearGradient id="paint6_linear_57_6848" x1="70.7545" y1="137.428" x2="42.5928" y2="177.759" gradientUnits="userSpaceOnUse">
<stop stop-color="#FFFF83"/>
<stop offset="1" stop-color="#FFD700" stop-opacity="0"/>
</linearGradient>
<linearGradient id="paint7_linear_57_6848" x1="93.3327" y1="146.871" x2="66.6284" y2="191.299" gradientUnits="userSpaceOnUse">
<stop stop-color="#FFFF83"/>
<stop offset="1" stop-color="#FFD700" stop-opacity="0"/>
</linearGradient>
<linearGradient id="paint8_linear_57_6848" x1="103.892" y1="154.771" x2="99.1683" y2="198.979" gradientUnits="userSpaceOnUse">
<stop stop-color="#FFFF83"/>
<stop offset="1" stop-color="#FFD700" stop-opacity="0"/>
</linearGradient>
<linearGradient id="paint9_linear_57_6848" x1="120.293" y1="154.34" x2="133.053" y2="202.507" gradientUnits="userSpaceOnUse">
<stop stop-color="#FFFF83"/>
<stop offset="1" stop-color="#FFD700" stop-opacity="0"/>
</linearGradient>
<linearGradient id="paint10_linear_57_6848" x1="134.436" y1="147.836" x2="163.774" y2="185.261" gradientUnits="userSpaceOnUse">
<stop stop-color="#FFFF83"/>
<stop offset="1" stop-color="#FFD700" stop-opacity="0"/>
</linearGradient>
<linearGradient id="paint11_linear_57_6848" x1="144.863" y1="133.654" x2="186.19" y2="164.167" gradientUnits="userSpaceOnUse">
<stop stop-color="#FFFF83"/>
<stop offset="1" stop-color="#FFD700" stop-opacity="0"/>
</linearGradient>
<linearGradient id="paint12_linear_57_6848" x1="159.269" y1="119.061" x2="204.454" y2="137.346" gradientUnits="userSpaceOnUse">
<stop stop-color="#FFFF83"/>
<stop offset="1" stop-color="#FFD700" stop-opacity="0"/>
</linearGradient>
<linearGradient id="paint13_linear_57_6848" x1="153.954" y1="98.4429" x2="212.627" y2="104.19" gradientUnits="userSpaceOnUse">
<stop stop-color="#FFFF83"/>
<stop offset="1" stop-color="#FFD700" stop-opacity="0"/>
</linearGradient>
<linearGradient id="paint14_linear_57_6848" x1="153.886" y1="86.3876" x2="197.247" y2="68.177" gradientUnits="userSpaceOnUse">
<stop stop-color="#FFFF83"/>
<stop offset="1" stop-color="#FFD700" stop-opacity="0"/>
</linearGradient>
<linearGradient id="paint15_linear_57_6848" x1="137.091" y1="78.0469" x2="185.424" y2="33.4933" gradientUnits="userSpaceOnUse">
<stop stop-color="#FFFF83"/>
<stop offset="1" stop-color="#FFD700" stop-opacity="0"/>
</linearGradient>
<linearGradient id="paint16_linear_57_6848" x1="125.87" y1="65.6036" x2="155.097" y2="13.7843" gradientUnits="userSpaceOnUse">
<stop stop-color="#FFFF83"/>
<stop offset="1" stop-color="#FFD700" stop-opacity="0"/>
</linearGradient>
<linearGradient id="paint17_linear_57_6848" x1="111.247" y1="59.3416" x2="120.464" y2="-1.74419" gradientUnits="userSpaceOnUse">
<stop stop-color="#FFFF83"/>
<stop offset="1" stop-color="#FFD700" stop-opacity="0"/>
</linearGradient>
<radialGradient id="paint18_radial_57_6848" cx="0" cy="0" r="1" gradientUnits="userSpaceOnUse" gradientTransform="translate(108 108) scale(42.9995 43.0006)">
<stop stop-color="#FFF000"/>
<stop offset="1" stop-color="#FFFF83"/>
</radialGradient>
</defs>
</svg>
