<svg width="539" height="688" viewBox="0 0 539 688" fill="none" xmlns="http://www.w3.org/2000/svg">
<ellipse cx="271.154" cy="643.992" rx="203.366" ry="43.5784" fill="black" fill-opacity="0.32"/>
<path d="M332.73 507.369L326.347 593.295C326.347 593.295 371.194 588.56 372.379 597.995C373.565 607.43 338.154 614.519 338.154 614.519C338.154 614.519 377.158 626.718 372.406 639.502C367.653 652.285 307.46 629.866 299.202 613.342C290.944 596.818 299.202 516.743 299.202 516.743L332.73 507.369Z" fill="#FF791F"/>
<path d="M230.899 501.448L224.516 587.374C224.516 587.374 269.363 582.639 270.549 592.074C271.726 601.518 236.323 608.598 236.323 608.598C236.323 608.598 275.327 620.797 270.575 633.581C265.822 646.364 205.629 623.945 197.371 607.421C189.113 590.897 197.371 510.822 197.371 510.822L230.899 501.448Z" fill="#FF791F"/>
<mask id="path-4-inside-1_57_6721" fill="white">
<path d="M274.409 442.197C157.475 448.571 69.9625 387.523 18.6458 337.706C16.7972 335.683 -12.7719 302.661 6.49042 286.407C26.3631 269.63 76.7814 319.072 112.716 286.407C125.7 274.6 155.208 262.802 166.579 167.205C177.95 71.6091 303.918 -47.6008 412.498 19.6733C484.254 64.1274 511.164 163.595 499.784 261.956C466.875 334.174 398.877 435.413 274.409 442.197Z"/>
</mask>
<path d="M274.409 442.197C157.475 448.571 69.9625 387.523 18.6458 337.706C16.7972 335.683 -12.7719 302.661 6.49042 286.407C26.3631 269.63 76.7814 319.072 112.716 286.407C125.7 274.6 155.208 262.802 166.579 167.205C177.95 71.6091 303.918 -47.6008 412.498 19.6733C484.254 64.1274 511.164 163.595 499.784 261.956C466.875 334.174 398.877 435.413 274.409 442.197Z" fill="#F2FF00" stroke="black" stroke-opacity="0.25" stroke-width="2" mask="url(#path-4-inside-1_57_6721)"/>
<path d="M274.41 442.197C398.878 435.404 466.876 334.174 499.785 261.956C487.508 368.051 430.671 472.856 336.967 505.93C156.386 569.664 57.2499 437.479 23.0242 385.543C-11.2014 333.616 18.8298 337.898 18.8298 337.898C18.8298 337.898 18.7165 337.767 18.6555 337.706C69.9634 387.523 157.485 448.58 274.41 442.197Z" fill="#FFC127"/>
<mask id="path-6-inside-2_57_6721" fill="white">
<path d="M230.741 377.304C230.741 377.304 171.916 414.878 157.145 399.714C141.039 383.19 166.571 353.681 166.571 353.681C166.571 353.681 124.515 369.028 120.975 345.424C117.435 321.819 168.184 327.722 230.741 252.182C293.298 176.65 328.7 206.149 342.862 252.182C357.031 298.214 213.04 484.715 230.741 377.304Z"/>
</mask>
<path d="M230.741 377.304C230.741 377.304 171.916 414.878 157.145 399.714C141.039 383.19 166.571 353.681 166.571 353.681C166.571 353.681 124.515 369.028 120.975 345.424C117.435 321.819 168.184 327.722 230.741 252.182C293.298 176.65 328.7 206.149 342.862 252.182C357.031 298.214 213.04 484.715 230.741 377.304Z" fill="#FFC127" stroke="black" stroke-opacity="0.13" stroke-width="2" mask="url(#path-6-inside-2_57_6721)"/>
<path d="M392.434 132.972C381.353 132.972 372.37 119.233 372.37 102.286C372.37 85.3392 381.353 71.601 392.434 71.601C403.515 71.601 412.499 85.3392 412.499 102.286C412.499 119.233 403.515 132.972 392.434 132.972Z" fill="#303030"/>
<mask id="path-8-inside-3_57_6721" fill="white">
<path d="M472.954 86.6428C472.954 86.6428 530.531 52.7224 537.612 71.6097C544.692 90.497 512.83 132.981 512.83 132.981C512.83 132.981 538.492 127.173 538.641 146.008C538.798 164.843 497.483 161.312 497.483 161.312L472.954 86.6428Z"/>
</mask>
<path d="M472.954 86.6428C472.954 86.6428 530.531 52.7224 537.612 71.6097C544.692 90.497 512.83 132.981 512.83 132.981C512.83 132.981 538.492 127.173 538.641 146.008C538.798 164.843 497.483 161.312 497.483 161.312L472.954 86.6428Z" fill="#FF791F" stroke="black" stroke-opacity="0.23" stroke-width="2" mask="url(#path-8-inside-3_57_6721)"/>
</svg>
