<svg width="551" height="670" viewBox="0 0 551 670" fill="none" xmlns="http://www.w3.org/2000/svg">
<ellipse cx="277.235" cy="627.562" rx="203.502" ry="42.338" fill="black" fill-opacity="0.32"/>
<g filter="url(#filter0_d_57_6722)">
<path d="M321.558 486.598L347.14 566.539C347.14 566.539 387.154 546.285 391.719 554.39C396.285 562.496 365.918 581.517 365.918 581.517C365.918 581.517 406.706 578.651 406.972 591.898C407.237 605.146 342.973 606.323 329.223 594.328C315.472 582.333 293.782 507.013 293.782 507.013L321.558 486.598Z" fill="#FF791F"/>
<path d="M245.035 497.788L201.108 569.82C201.108 569.82 243.416 585.058 240.284 593.782C237.141 602.509 202.255 593.389 202.255 593.389C202.255 593.389 231.797 620.845 221.852 629.919C211.908 638.994 167.915 593.497 167.86 575.55C167.804 557.603 210.81 491.473 210.81 491.473L245.035 497.788Z" fill="#FF791F"/>
<mask id="path-4-inside-1_57_6722" fill="white">
<path d="M280.493 431.511C163.481 437.704 75.9092 378.393 24.5583 329.994C22.7084 328.029 -6.88037 295.946 12.3948 280.155C32.2807 263.855 82.7327 311.89 118.691 280.155C131.684 268.684 161.212 257.222 172.59 164.346C183.969 71.471 310.021 -44.346 418.673 21.0133C490.477 64.2022 517.405 160.839 506.018 256.4C473.087 326.563 405.044 424.92 280.493 431.511Z"/>
</mask>
<path d="M280.493 431.511C163.481 437.704 75.9092 378.393 24.5583 329.994C22.7084 328.029 -6.88037 295.946 12.3948 280.155C32.2807 263.855 82.7327 311.89 118.691 280.155C131.684 268.684 161.212 257.222 172.59 164.346C183.969 71.471 310.021 -44.346 418.673 21.0133C490.477 64.2022 517.405 160.839 506.018 256.4C473.087 326.563 405.044 424.92 280.493 431.511Z" fill="#F2FF00" stroke="black" stroke-opacity="0.25" stroke-width="2" mask="url(#path-4-inside-1_57_6722)"/>
<path d="M280.494 431.511C405.045 424.911 473.088 326.563 506.019 256.4C493.733 359.475 436.859 461.297 343.092 493.43C162.391 555.35 63.1882 426.927 28.9397 376.47C-5.30879 326.021 24.7425 330.18 24.7425 330.18C24.7425 330.18 24.6291 330.053 24.5681 329.994C75.9103 378.393 163.49 437.712 280.494 431.511Z" fill="#FFC127"/>
<mask id="path-6-inside-2_57_6722" fill="white">
<path d="M236.795 368.464C236.795 368.464 177.931 404.969 163.15 390.236C147.033 374.183 172.582 345.514 172.582 345.514C172.582 345.514 130.498 360.424 126.956 337.491C123.413 314.559 174.197 320.294 236.795 246.903C299.393 173.521 334.82 202.181 348.99 246.903C363.17 291.626 219.082 472.819 236.795 368.464Z"/>
</mask>
<path d="M236.795 368.464C236.795 368.464 177.931 404.969 163.15 390.236C147.033 374.183 172.582 345.514 172.582 345.514C172.582 345.514 130.498 360.424 126.956 337.491C123.413 314.559 174.197 320.294 236.795 246.903C299.393 173.521 334.82 202.181 348.99 246.903C363.17 291.626 219.082 472.819 236.795 368.464Z" fill="#FFC127" stroke="black" stroke-opacity="0.13" stroke-width="2" mask="url(#path-6-inside-2_57_6722)"/>
<path d="M398.596 131.087C387.507 131.087 378.518 117.739 378.518 101.274C378.518 84.8098 387.507 71.4626 398.596 71.4626C409.685 71.4626 418.674 84.8098 418.674 101.274C418.674 117.739 409.685 131.087 398.596 131.087Z" fill="#303030"/>
<mask id="path-8-inside-3_57_6722" fill="white">
<path d="M479.169 86.0761C479.169 86.0761 536.785 53.1211 543.871 71.4709C550.956 89.8206 519.072 131.095 519.072 131.095C519.072 131.095 544.752 125.453 544.9 143.752C545.057 162.051 503.715 158.62 503.715 158.62L479.169 86.0761Z"/>
</mask>
<path d="M479.169 86.0761C479.169 86.0761 536.785 53.1211 543.871 71.4709C550.956 89.8206 519.072 131.095 519.072 131.095C519.072 131.095 544.752 125.453 544.9 143.752C545.057 162.051 503.715 158.62 503.715 158.62L479.169 86.0761Z" fill="#FF791F" stroke="black" stroke-opacity="0.23" stroke-width="2" mask="url(#path-8-inside-3_57_6722)"/>
</g>
<defs>
<filter id="filter0_d_57_6722" x="2.43187e-05" y="2.43187e-05" width="550.801" height="641.003" filterUnits="userSpaceOnUse" color-interpolation-filters="sRGB">
<feFlood flood-opacity="0" result="BackgroundImageFix"/>
<feColorMatrix in="SourceAlpha" type="matrix" values="0 0 0 0 0 0 0 0 0 0 0 0 0 0 0 0 0 0 127 0" result="hardAlpha"/>
<feOffset dy="4"/>
<feGaussianBlur stdDeviation="2.95"/>
<feComposite in2="hardAlpha" operator="out"/>
<feColorMatrix type="matrix" values="0 0 0 0 0 0 0 0 0 0 0 0 0 0 0 0 0 0 0.25 0"/>
<feBlend mode="normal" in2="BackgroundImageFix" result="effect1_dropShadow_57_6722"/>
<feBlend mode="normal" in="SourceGraphic" in2="effect1_dropShadow_57_6722" result="shape"/>
</filter>
</defs>
</svg>
