<svg width="675" height="675" viewBox="0 0 675 675" fill="none" xmlns="http://www.w3.org/2000/svg">
<g filter="url(#filter0_d_57_6707)">
<mask id="path-1-inside-1_57_6707" fill="white">
<path d="M233.825 471.802C152.641 399.011 135.217 301.201 134.23 234.616C134.344 232.067 136.618 190.858 160.001 192.839C184.131 194.877 184.774 260.623 229.939 262.776C246.26 263.551 273.456 275.211 343.881 219.758C414.307 164.306 575.728 168.755 602.923 284.535C620.898 361.046 573.127 444.251 500.876 501.518C431.662 527.398 320.239 549.283 233.825 471.802Z"/>
</mask>
<path d="M233.825 471.802C152.641 399.011 135.217 301.201 134.23 234.616C134.344 232.067 136.618 190.858 160.001 192.839C184.131 194.877 184.774 260.623 229.939 262.776C246.26 263.551 273.456 275.211 343.881 219.758C414.307 164.306 575.728 168.755 602.923 284.535C620.898 361.046 573.127 444.251 500.876 501.518C431.662 527.398 320.239 549.283 233.825 471.802Z" fill="#F2FF00" stroke="black" stroke-opacity="0.25" stroke-width="2" mask="url(#path-1-inside-1_57_6707)"/>
<path d="M233.826 471.802C320.246 549.278 431.663 527.399 500.877 501.518C422.942 563.286 316.52 594.868 233.051 554.95C72.1985 478.02 93.9571 325.721 105.617 268.994C117.272 212.273 134.225 234.864 134.225 234.864C134.225 234.864 134.236 234.703 134.236 234.623C135.218 301.201 152.642 399.023 233.826 471.802Z" fill="#FFC127"/>
<mask id="path-3-inside-2_57_6707" fill="white">
<path d="M266.044 253.889C266.044 253.889 231.85 198.62 246.165 185.071C261.765 170.298 288.895 194.463 288.895 194.463C288.895 194.463 275.17 155.103 297.194 152.123C319.217 149.144 313.042 196.312 382.532 255.564C452.015 314.815 424.077 347.38 381.031 359.948C337.985 372.524 166.28 235.971 266.044 253.889Z"/>
</mask>
<path d="M266.044 253.889C266.044 253.889 231.85 198.62 246.165 185.071C261.765 170.298 288.895 194.463 288.895 194.463C288.895 194.463 275.17 155.103 297.194 152.123C319.217 149.144 313.042 196.312 382.532 255.564C452.015 314.815 424.077 347.38 381.031 359.948C337.985 372.524 166.28 235.971 266.044 253.889Z" fill="#FFC127" stroke="black" stroke-opacity="0.13" stroke-width="2" mask="url(#path-3-inside-2_57_6707)"/>
<path d="M523.329 309.309C514.663 303.709 514.581 288.426 523.145 275.173C531.71 261.92 545.677 255.716 554.343 261.316C563.009 266.916 563.091 282.199 554.527 295.452C545.963 308.705 531.995 314.909 523.329 309.309Z" fill="#303030"/>
<mask id="path-5-inside-3_57_6707" fill="white">
<path d="M592.249 278.128C592.249 278.128 651.579 259.382 654.057 277.999C656.535 296.616 618.747 328.505 618.747 328.505C618.747 328.505 643.246 328.598 639.444 345.719C635.651 362.842 598.902 351.004 598.902 351.004L592.249 278.128Z"/>
</mask>
<path d="M592.249 278.128C592.249 278.128 651.579 259.382 654.057 277.999C656.535 296.616 618.747 328.505 618.747 328.505C618.747 328.505 643.246 328.598 639.444 345.719C635.651 362.842 598.902 351.004 598.902 351.004L592.249 278.128Z" fill="#FF791F" stroke="black" stroke-opacity="0.23" stroke-width="2" mask="url(#path-5-inside-3_57_6707)"/>
</g>
<defs>
<filter id="filter0_d_57_6707" x="91.6975" y="150.09" width="568.377" height="432.504" filterUnits="userSpaceOnUse" color-interpolation-filters="sRGB">
<feFlood flood-opacity="0" result="BackgroundImageFix"/>
<feColorMatrix in="SourceAlpha" type="matrix" values="0 0 0 0 0 0 0 0 0 0 0 0 0 0 0 0 0 0 127 0" result="hardAlpha"/>
<feOffset dy="4"/>
<feGaussianBlur stdDeviation="2.95"/>
<feComposite in2="hardAlpha" operator="out"/>
<feColorMatrix type="matrix" values="0 0 0 0 0 0 0 0 0 0 0 0 0 0 0 0 0 0 0.25 0"/>
<feBlend mode="normal" in2="BackgroundImageFix" result="effect1_dropShadow_57_6707"/>
<feBlend mode="normal" in="SourceGraphic" in2="effect1_dropShadow_57_6707" result="shape"/>
</filter>
</defs>
</svg>
