<svg width="668" height="668" viewBox="0 0 668 668" fill="none" xmlns="http://www.w3.org/2000/svg">
<ellipse cx="332.314" cy="627.92" rx="188.612" ry="40.08" fill="black" fill-opacity="0.32"/>
<g filter="url(#filter0_d_57_6723)">
<path d="M373.394 494.474L397.104 570.151C397.104 570.151 434.19 550.978 438.422 558.651C442.653 566.324 414.508 584.331 414.508 584.331C414.508 584.331 452.312 581.617 452.558 594.158C452.804 606.699 393.242 607.813 380.498 596.458C367.754 585.104 347.651 513.801 347.651 513.801L373.394 494.474Z" fill="#FF791F"/>
<path d="M302.47 505.067L261.757 573.257C261.757 573.257 300.97 587.683 298.067 595.941C295.153 604.204 262.82 595.57 262.82 595.57C262.82 595.57 290.2 621.561 280.984 630.152C271.767 638.742 230.993 595.672 230.941 578.682C230.89 561.692 270.749 499.09 270.749 499.09L302.47 505.067Z" fill="#FF791F"/>
<mask id="path-4-inside-1_57_6723" fill="white">
<path d="M228.552 466.039C147.686 394.137 130.33 297.522 129.347 231.75C129.461 229.232 131.726 188.527 155.017 190.483C179.053 192.496 179.693 257.44 224.681 259.566C240.939 260.332 268.028 271.849 338.178 217.074C408.327 162.298 569.116 166.693 596.205 281.059C614.11 356.635 566.526 438.824 494.558 495.391C425.615 520.956 314.628 542.573 228.552 466.039Z"/>
</mask>
<path d="M228.552 466.039C147.686 394.137 130.33 297.522 129.347 231.75C129.461 229.232 131.726 188.527 155.017 190.483C179.053 192.496 179.693 257.44 224.681 259.566C240.939 260.332 268.028 271.849 338.178 217.074C408.327 162.298 569.116 166.693 596.205 281.059C614.11 356.635 566.526 438.824 494.558 495.391C425.615 520.956 314.628 542.573 228.552 466.039Z" fill="#F2FF00" stroke="black" stroke-opacity="0.25" stroke-width="2" mask="url(#path-4-inside-1_57_6723)"/>
<path d="M228.553 466.039C314.635 542.568 425.616 520.956 494.559 495.392C416.929 556.405 310.924 587.601 227.782 548.171C67.5586 472.181 89.2321 321.743 100.846 265.708C112.455 209.679 129.342 231.994 129.342 231.994C129.342 231.994 129.353 231.836 129.353 231.756C130.331 297.522 147.687 394.149 228.553 466.039Z" fill="#FFC127"/>
<mask id="path-6-inside-2_57_6723" fill="white">
<path d="M242.47 395.436C242.47 395.436 179.251 381.616 179.508 362.148C179.783 340.927 215.878 338.341 215.878 338.341C215.878 338.341 178.233 320.971 191.392 303.318C204.55 285.664 233.96 322.508 324.526 314.064C415.085 305.626 418.956 347.834 398.055 386.981C377.159 426.133 160.42 453.778 242.47 395.436Z"/>
</mask>
<path d="M242.47 395.436C242.47 395.436 179.251 381.616 179.508 362.148C179.783 340.927 215.878 338.341 215.878 338.341C215.878 338.341 178.233 320.971 191.392 303.318C204.55 285.664 233.96 322.508 324.526 314.064C415.085 305.626 418.956 347.834 398.055 386.981C377.159 426.133 160.42 453.778 242.47 395.436Z" fill="#FFC127" stroke="black" stroke-opacity="0.13" stroke-width="2" mask="url(#path-6-inside-2_57_6723)"/>
<path d="M511.956 344.31C502.029 341.672 497.279 327.329 501.347 312.273C505.415 297.218 516.761 287.152 526.688 289.789C536.615 292.427 541.365 306.77 537.297 321.826C533.229 336.881 521.884 346.948 511.956 344.31Z" fill="#303030"/>
<mask id="path-8-inside-3_57_6723" fill="white">
<path d="M593.389 293.631C593.389 293.631 654.886 285.987 653.969 304.516C653.052 323.045 610.301 347.297 610.301 347.297C610.301 347.297 634.287 351.752 627.487 367.709C620.695 383.669 586.816 365.622 586.816 365.622L593.389 293.631Z"/>
</mask>
<path d="M593.389 293.631C593.389 293.631 654.886 285.987 653.969 304.516C653.052 323.045 610.301 347.297 610.301 347.297C610.301 347.297 634.287 351.752 627.487 367.709C620.695 383.669 586.816 365.622 586.816 365.622L593.389 293.631Z" fill="#FF791F" stroke="black" stroke-opacity="0.23" stroke-width="2" mask="url(#path-8-inside-3_57_6723)"/>
</g>
<defs>
<filter id="filter0_d_57_6723" x="86.9582" y="181.092" width="572.921" height="460.081" filterUnits="userSpaceOnUse" color-interpolation-filters="sRGB">
<feFlood flood-opacity="0" result="BackgroundImageFix"/>
<feColorMatrix in="SourceAlpha" type="matrix" values="0 0 0 0 0 0 0 0 0 0 0 0 0 0 0 0 0 0 127 0" result="hardAlpha"/>
<feOffset dy="4"/>
<feGaussianBlur stdDeviation="2.95"/>
<feComposite in2="hardAlpha" operator="out"/>
<feColorMatrix type="matrix" values="0 0 0 0 0 0 0 0 0 0 0 0 0 0 0 0 0 0 0.25 0"/>
<feBlend mode="normal" in2="BackgroundImageFix" result="effect1_dropShadow_57_6723"/>
<feBlend mode="normal" in="SourceGraphic" in2="effect1_dropShadow_57_6723" result="shape"/>
</filter>
</defs>
</svg>
